<svg aria-hidden="true" style="width:0;height:0;position:absolute;overflow:hidden" xmlns="http://www.w3.org/2000/svg"><defs><symbol id="icon-arrow-down" viewBox="0 0 24 24"><path fill="#5b5b5b" style="fill:var(--color1,#5b5b5b)" d="M11.994 16.235 22.423 5.806a.923.923 0 1 1 1.306 1.306L12.647 18.194a.925.925 0 0 1-1.306 0L.259 7.112a.924.924 0 0 1 1.306-1.306l10.429 10.429z"/></symbol><symbol id="icon-arrow-goto" viewBox="0 0 24 24"><path fill="#887569" style="fill:var(--color2,#887569)" d="M0 12c0 .466.377.843.843.843h20.304l-5.319 5.314a.837.837 0 0 0 0 1.186.844.844 0 0 0 1.191 0l6.745-6.75c.314-.314.314-.873 0-1.191l-6.75-6.745c-.328-.328-.863-.328-1.191 0s-.328.863 0 1.191l5.314 5.314H.838A.831.831 0 0 0 0 12z"/></symbol><symbol id="icon-arrow-left" viewBox="0 0 24 24"><path fill="#675b56" style="fill:var(--color3,#675b56)" d="m7.765 11.994 10.429 10.429a.923.923 0 1 1-1.306 1.306L5.806 12.647a.923.923 0 0 1 0-1.306L16.888.259a.924.924 0 0 1 1.306 1.306L7.765 11.994z"/></symbol><symbol id="icon-arrow-right" viewBox="0 0 24 24"><path fill="#675b56" style="fill:var(--color3,#675b56)" d="M16.235 12.006 5.806 1.577A.923.923 0 1 1 7.112.271l11.082 11.082a.923.923 0 0 1 0 1.306L7.112 23.741a.924.924 0 0 1-1.306-1.306l10.429-10.429z"/></symbol><symbol id="icon-bird" viewBox="0 0 24 24"><path fill="#be907e" style="fill:var(--color4,#be907e)" d="M23.649 3.539a1.2 1.2 0 0 0-1.697 0L7.575 17.916 2.049 12.39a1.2 1.2 0 1 0-1.697 1.697l6.375 6.375a1.2 1.2 0 0 0 1.697 0L23.649 5.237a1.2 1.2 0 0 0 0-1.697z"/></symbol><symbol id="icon-cart" viewBox="0 0 24 24"><path fill="#887569" style="fill:var(--color2,#887569)" d="M23.902 10.202a.5.5 0 0 0-.401-.202h-23a.499.499 0 0 0-.479.643l2.572 8.575A2.486 2.486 0 0 0 4.989 21h14.024a2.484 2.484 0 0 0 2.394-1.781l2.572-8.575a.498.498 0 0 0-.077-.442zm-3.452 8.729A1.493 1.493 0 0 1 19.012 20H4.989c-.668 0-1.245-.43-1.437-1.069L1.173 11h21.656l-2.379 7.931z"/><path fill="#887569" style="fill:var(--color2,#887569)" d="M10.748 3.066a.5.5 0 0 0-.683.186l-4 7a.5.5 0 0 0 .87.496l4-7a.5.5 0 0 0-.187-.682zM17.935 10.252l-4-7a.501.501 0 0 0-.87.496l4 7a.501.501 0 0 0 .87-.496z"/></symbol><symbol id="icon-dandruff" viewBox="0 0 24 24"><path fill="#887569" style="fill:var(--color2,#887569)" d="m23.798 22.776-5.832-5.832a10.191 10.191 0 0 0 2.512-6.71c0-5.646-4.592-10.233-10.233-10.233C4.599.001.012 4.593.012 10.234s4.592 10.233 10.233 10.233c2.565 0 4.912-.947 6.71-2.512l5.832 5.832a.703.703 0 0 0 1.011 0 .719.719 0 0 0 0-1.011zM1.442 10.233c0-4.853 3.949-8.796 8.796-8.796 4.853 0 8.796 3.949 8.796 8.796s-3.943 8.802-8.796 8.802c-4.848 0-8.796-3.949-8.796-8.802z"/></symbol><symbol id="icon-facebook" viewBox="0 0 24 24"><path fill="#7d6c65" style="fill:var(--color5,#7d6c65)" d="M13.62 23.953H9.769a1.166 1.166 0 0 1-1.166-1.164V14.12H6.356a1.166 1.166 0 0 1-1.166-1.164V9.241c0-.642.523-1.164 1.166-1.164h2.247v-1.86c0-1.844.58-3.414 1.678-4.538C11.384.55 12.925-.047 14.737-.047l2.937.005a1.166 1.166 0 0 1 1.164 1.164v3.449c0 .642-.523 1.164-1.166 1.164l-1.977.001c-.603 0-.757.121-.789.158-.054.061-.118.235-.118.714v1.47h2.737a1.168 1.168 0 0 1 1.177 1.164l-.001 3.715c0 .642-.523 1.164-1.167 1.164h-2.746v8.669c0 .642-.523 1.164-1.167 1.164zm-3.608-1.407h3.364V13.49c0-.429.35-.777.779-.777h3.134l.001-3.229h-3.135a.78.78 0 0 1-.779-.777V6.608c0-.55.056-1.175.472-1.645.502-.568 1.294-.634 1.846-.634l1.734-.001V1.364l-2.693-.004c-2.913 0-4.723 1.861-4.723 4.857v2.49a.779.779 0 0 1-.779.777H6.598v3.229h2.635a.78.78 0 0 1 .779.777v9.056zm7.659-21.181z"/></symbol><symbol id="icon-heart" viewBox="0 0 24 24"><path fill="#887569" style="fill:var(--color2,#887569)" d="M6.805 2.065A6.746 6.746 0 0 1 12 4.465a6.652 6.652 0 0 1 5.195-2.4A6.805 6.805 0 0 1 24 8.87c0 6.441-11.24 12.729-11.696 12.972a.547.547 0 0 1-.608 0C11.24 21.599 0 15.402 0 8.87a6.805 6.805 0 0 1 6.805-6.805zM12 20.627c1.762-1.033 10.785-6.532 10.785-11.757a5.59 5.59 0 0 0-5.59-5.59 5.469 5.469 0 0 0-4.679 2.522.638.638 0 0 1-1.033 0A5.59 5.59 0 0 0 1.214 8.871c0 5.286 9.023 10.754 10.785 11.757z"/></symbol><symbol id="icon-insta" viewBox="0 0 24 24"><path fill="#7d6c65" style="fill:var(--color5,#7d6c65)" d="M17.503 0H6.496A6.504 6.504 0 0 0-.001 6.497v11.007A6.503 6.503 0 0 0 6.496 24h11.007a6.503 6.503 0 0 0 6.496-6.496V6.497A6.504 6.504 0 0 0 17.502 0zm5.09 17.504a5.095 5.095 0 0 1-5.09 5.089H6.496a5.096 5.096 0 0 1-5.09-5.089V6.497a5.096 5.096 0 0 1 5.09-5.09h11.007a5.095 5.095 0 0 1 5.089 5.09v11.007z"/><path fill="#7d6c65" style="fill:var(--color5,#7d6c65)" d="M12 5.438c-3.619 0-6.562 2.944-6.562 6.562S8.382 18.562 12 18.562c3.619 0 6.562-2.944 6.562-6.562S15.618 5.438 12 5.438zm0 11.717c-2.843 0-5.155-2.313-5.155-5.155S9.158 6.845 12 6.845c2.843 0 5.155 2.313 5.155 5.155S14.842 17.155 12 17.155zM18.719 3.107c-1.069 0-1.939.87-1.939 1.939s.87 1.939 1.939 1.939 1.939-.87 1.939-1.939-.87-1.939-1.939-1.939zm0 2.471a.533.533 0 0 1 0-1.064.532.532 0 0 1 0 1.064z"/></symbol><symbol id="icon-letter" viewBox="0 0 24 24"><path fill="#7d6c65" style="fill:var(--color5,#7d6c65)" d="M21.75 3H2.25A2.252 2.252 0 0 0 0 5.25v13.5A2.252 2.252 0 0 0 2.25 21h19.5A2.252 2.252 0 0 0 24 18.75V5.25A2.252 2.252 0 0 0 21.75 3zm0 1.5a.74.74 0 0 1 .287.058L12 13.258l-10.038-8.7a.747.747 0 0 1 .287-.058h19.5zm0 15H2.25a.75.75 0 0 1-.75-.75V6.143l10.009 8.674a.749.749 0 0 0 .982 0L22.5 6.143V18.75a.75.75 0 0 1-.75.75z"/></symbol><symbol id="icon-marker" viewBox="0 0 24 24"><path fill="#7d6c65" style="fill:var(--color5,#7d6c65)" d="M11.983 0c-4.85 0-8.796 3.946-8.796 8.796 0 2.228 1.404 5.376 4.173 9.357a62.867 62.867 0 0 0 4.098 5.256l.525.592.525-.592a62.67 62.67 0 0 0 4.098-5.256c2.769-3.981 4.173-7.128 4.173-9.357 0-4.85-3.946-8.796-8.796-8.796zm3.479 17.34a63.895 63.895 0 0 1-3.479 4.526 63.552 63.552 0 0 1-3.471-4.515C5.947 13.663 4.59 10.704 4.59 8.796c0-4.076 3.316-7.393 7.393-7.393s7.393 3.316 7.393 7.393c0 1.907-1.353 4.861-3.914 8.544z"/><path fill="#7d6c65" style="fill:var(--color5,#7d6c65)" d="M11.982 3.251c-2.862 0-5.191 2.329-5.191 5.191s2.329 5.191 5.191 5.191c2.863 0 5.191-2.329 5.191-5.191s-2.329-5.191-5.191-5.191zm0 8.979c-2.089 0-3.788-1.699-3.788-3.788s1.699-3.788 3.788-3.788c2.089 0 3.788 1.699 3.788 3.788s-1.699 3.788-3.788 3.788z"/></symbol><symbol id="icon-phone" viewBox="0 0 24 24"><path fill="#887569" style="fill:var(--color2,#887569)" d="M17.249 24a6.682 6.682 0 0 1-2.294-.41c-3.309-1.202-6.381-3.16-8.883-5.662S1.612 12.354.41 9.045a6.648 6.648 0 0 1-.339-3.263 6.787 6.787 0 0 1 1.156-2.897A6.835 6.835 0 0 1 3.57.799 6.687 6.687 0 0 1 6.77 0a.75.75 0 0 1 .733.593L8.68 6.086a.749.749 0 0 1-.203.687L6.466 8.784a19.742 19.742 0 0 0 8.749 8.749l2.011-2.011a.75.75 0 0 1 .687-.203l5.493 1.177a.75.75 0 0 1 .593.733 6.687 6.687 0 0 1-.799 3.2 6.825 6.825 0 0 1-2.086 2.343 6.787 6.787 0 0 1-2.897 1.156 6.732 6.732 0 0 1-.969.071zM6.17 1.533a5.198 5.198 0 0 0-3.715 2.213 5.166 5.166 0 0 0-.636 4.787A22.747 22.747 0 0 0 15.466 22.18a5.166 5.166 0 0 0 4.787-.636 5.191 5.191 0 0 0 2.213-3.715l-4.469-.958-2.101 2.101a.75.75 0 0 1-.849.149 21.235 21.235 0 0 1-10.17-10.17.75.75 0 0 1 .148-.849l2.101-2.101-.958-4.469z"/></symbol><symbol id="icon-point" viewBox="0 0 24 24"><path fill="#a5a5a5" style="fill:var(--color6,#a5a5a5)" d="M24 12c0 6.627-5.373 12-12 12S0 18.627 0 12 5.373 0 12 0s12 5.373 12 12z"/></symbol><symbol id="icon-th-menu" fill="#887569" style="fill:var(--color2,#887569)" viewBox="0 0 24 24"><path d="M19 17H5c-1.103 0-2 .897-2 2s.897 2 2 2h14c1.103 0 2-.897 2-2s-.897-2-2-2zM19 10H5c-1.103 0-2 .897-2 2s.897 2 2 2h14c1.103 0 2-.897 2-2s-.897-2-2-2zM19 3H5c-1.103 0-2 .897-2 2s.897 2 2 2h14c1.103 0 2-.897 2-2s-.897-2-2-2z"/></symbol></defs></svg>