<svg width="18" height="18" viewBox="0 0 18 18" fill="none" xmlns="http://www.w3.org/2000/svg">
<g clip-path="url(#clip0_48_1658)">
<path d="M17.9262 7.65149C17.8557 7.55625 17.7439 7.5 17.6254 7.5H0.375346C0.256834 7.5 0.145107 7.55625 0.073845 7.65075C0.00335638 7.74599 -0.0184054 7.869 0.016083 7.98224L1.94508 14.4135C2.18509 15.213 2.90735 15.75 3.74132 15.75H14.2594C15.0934 15.75 15.8156 15.213 16.0549 14.4142L17.9839 7.98298C18.0184 7.86974 17.9967 7.74599 17.9262 7.65149ZM15.3372 14.1983C15.1924 14.6775 14.7597 15 14.2587 15H3.74136C3.24035 15 2.80761 14.6775 2.66361 14.1983L0.879348 8.24999H17.1214L15.3372 14.1983Z" fill="#675B56"/>
<path d="M8.06127 2.29968C7.88201 2.19692 7.65251 2.25845 7.549 2.43919L4.549 7.68919C4.44701 7.86919 4.50924 8.09796 4.68924 8.20068C4.74774 8.23443 4.81148 8.25018 4.87525 8.25018C5.00501 8.25018 5.13175 8.18268 5.2015 8.06118L8.20154 2.81118C8.30353 2.63117 8.24127 2.40241 8.06127 2.29968Z" fill="#675B56"/>
<path d="M13.451 7.68919L10.451 2.43919C10.346 2.25845 10.1158 2.19692 9.93876 2.29968C9.75802 2.40245 9.69576 2.63117 9.79852 2.81118L12.7985 8.06118C12.8683 8.18268 12.995 8.25018 13.1248 8.25018C13.1885 8.25018 13.2523 8.23443 13.3108 8.20068C13.4915 8.09796 13.5538 7.86919 13.451 7.68919Z" fill="#675B56"/>
</g>
<defs>
<clipPath id="clip0_48_1658">
<rect width="18" height="18" fill="white"/>
</clipPath>
</defs>
</svg>
