<svg width="16" height="16" viewBox="0 0 16 16" fill="none" xmlns="http://www.w3.org/2000/svg">
<path d="M4.53672 1.37702C5.87143 1.36989 7.14027 1.95606 8.00002 2.977C8.85438 1.94909 10.1267 1.36124 11.4633 1.37702C13.9689 1.37702 16 3.40815 16 5.9137C16 10.2074 8.50634 14.3998 8.20253 14.5618C8.07995 14.6437 7.92008 14.6437 7.79747 14.5618C7.49366 14.3998 0 10.2681 0 5.9137C0 3.40815 2.03117 1.37702 4.53672 1.37702ZM8.00002 13.7517C9.1747 13.0631 15.1899 9.39727 15.1899 5.9137C15.1899 3.85559 13.5214 2.18711 11.4633 2.18711C10.2029 2.17055 9.02344 2.80627 8.3443 3.86811C8.20641 4.05825 7.94044 4.10063 7.75029 3.9627C7.71397 3.93634 7.68202 3.90443 7.6557 3.86811C6.52936 2.14555 4.21985 1.66222 2.49729 2.78856C1.44278 3.47809 0.808072 4.65374 0.810165 5.91366C0.810127 9.43775 6.82534 13.0833 8.00002 13.7517Z" fill="#675B56"/>
</svg>
