<svg aria-hidden="true" style="position: absolute; width: 0; height: 0; overflow: hidden;" version="1.1" xmlns="http://www.w3.org/2000/svg" xmlns:xlink="http://www.w3.org/1999/xlink">
<defs>
<symbol id="icon-arrow-down" viewBox="0 0 24 24">
<path fill="#5b5b5b" style="fill: var(--color1, #5b5b5b)" d="M11.994 16.235l10.429-10.429c0.36-0.361 0.945-0.361 1.306 0s0.36 0.945 0 1.306l-11.082 11.082c-0.361 0.36-0.945 0.36-1.306 0l-11.082-11.082c-0.354-0.367-0.344-0.952 0.023-1.306 0.358-0.346 0.925-0.346 1.283 0l10.429 10.429z"></path>
</symbol>
<symbol id="icon-arrow-goto" viewBox="0 0 24 24">
<path fill="#887569" style="fill: var(--color2, #887569)" d="M0 12c0 0.466 0.377 0.843 0.843 0.843h20.304l-5.319 5.314c-0.162 0.162-0.245 0.377-0.245 0.593s0.083 0.431 0.245 0.593c0.328 0.328 0.863 0.328 1.191 0l6.745-6.75c0.314-0.314 0.314-0.873 0-1.191l-6.75-6.745c-0.328-0.328-0.863-0.328-1.191 0s-0.328 0.863 0 1.191l5.314 5.314h-20.299c-0.466-0.005-0.838 0.373-0.838 0.838z"></path>
</symbol>
<symbol id="icon-arrow-left" viewBox="0 0 24 24">
<path fill="#675b56" style="fill: var(--color3, #675b56)" d="M7.765 11.994l10.429 10.429c0.361 0.361 0.361 0.945 0 1.306s-0.945 0.36-1.306 0l-11.082-11.082c-0.361-0.361-0.361-0.945 0-1.306l11.082-11.082c0.367-0.354 0.952-0.344 1.306 0.023 0.346 0.358 0.346 0.925 0 1.283l-10.429 10.429z"></path>
</symbol>
<symbol id="icon-arrow-right" viewBox="0 0 24 24">
<path fill="#675b56" style="fill: var(--color3, #675b56)" d="M16.235 12.006l-10.429-10.429c-0.361-0.361-0.361-0.945 0-1.306s0.945-0.36 1.306 0l11.082 11.082c0.361 0.361 0.361 0.945 0 1.306l-11.082 11.082c-0.367 0.354-0.952 0.344-1.306-0.023-0.346-0.358-0.346-0.925 0-1.283l10.429-10.429z"></path>
</symbol>
<symbol id="icon-bird" viewBox="0 0 24 24">
<path fill="#be907e" style="fill: var(--color4, #be907e)" d="M23.649 3.539c-0.469-0.469-1.228-0.469-1.697 0l-14.377 14.377-5.526-5.526c-0.469-0.469-1.228-0.469-1.697 0s-0.469 1.228 0 1.697l6.375 6.375c0.468 0.469 1.229 0.468 1.697 0l15.225-15.225c0.469-0.469 0.469-1.228 0-1.697z"></path>
</symbol>
<symbol id="icon-cart" viewBox="0 0 24 24">
<path fill="#887569" style="fill: var(--color2, #887569)" d="M23.902 10.202c-0.094-0.127-0.243-0.202-0.401-0.202h-23c-0.158 0-0.307 0.075-0.402 0.201-0.094 0.127-0.123 0.291-0.077 0.442l2.572 8.575c0.32 1.066 1.283 1.782 2.395 1.782h14.024c1.112 0 2.075-0.716 2.394-1.781l2.572-8.575c0.046-0.151 0.017-0.316-0.077-0.442zM20.45 18.931c-0.193 0.639-0.77 1.069-1.438 1.069h-14.023c-0.668 0-1.245-0.43-1.437-1.069l-2.379-7.931h21.656l-2.379 7.931z"></path>
<path fill="#887569" style="fill: var(--color2, #887569)" d="M10.748 3.066c-0.239-0.137-0.545-0.055-0.683 0.186l-4 7c-0.136 0.24-0.053 0.545 0.187 0.682 0.078 0.045 0.163 0.066 0.248 0.066 0.173 0 0.342-0.090 0.435-0.252l4-7c0.136-0.24 0.053-0.545-0.187-0.682z"></path>
<path fill="#887569" style="fill: var(--color2, #887569)" d="M17.935 10.252l-4-7c-0.14-0.241-0.447-0.323-0.683-0.186-0.241 0.137-0.324 0.442-0.187 0.682l4 7c0.093 0.162 0.262 0.252 0.435 0.252 0.085 0 0.17-0.021 0.248-0.066 0.241-0.137 0.324-0.442 0.187-0.682z"></path>
</symbol>
<symbol id="icon-dandruff" viewBox="0 0 24 24">
<path fill="#887569" style="fill: var(--color2, #887569)" d="M23.798 22.776l-5.832-5.832c1.565-1.799 2.512-4.146 2.512-6.71 0-5.646-4.592-10.233-10.233-10.233-5.646 0-10.233 4.592-10.233 10.233s4.592 10.233 10.233 10.233c2.565 0 4.912-0.947 6.71-2.512l5.832 5.832c0.138 0.138 0.325 0.213 0.505 0.213s0.367-0.069 0.506-0.213c0.277-0.277 0.277-0.734 0-1.011zM1.442 10.233c0-4.853 3.949-8.796 8.796-8.796 4.853 0 8.796 3.949 8.796 8.796s-3.943 8.802-8.796 8.802c-4.848 0-8.796-3.949-8.796-8.802z"></path>
</symbol>
<symbol id="icon-facebook" viewBox="0 0 24 24">
<path fill="#7d6c65" style="fill: var(--color5, #7d6c65)" d="M13.62 23.953h-3.851c-0.643 0-1.166-0.522-1.166-1.164v-8.669h-2.247c-0.643 0-1.166-0.522-1.166-1.164v-3.715c0-0.642 0.523-1.164 1.166-1.164h2.247v-1.86c0-1.844 0.58-3.414 1.678-4.538 1.103-1.129 2.644-1.726 4.456-1.726l2.937 0.005c0.642 0.001 1.164 0.523 1.164 1.164v3.449c0 0.642-0.523 1.164-1.166 1.164l-1.977 0.001c-0.603 0-0.757 0.121-0.789 0.158-0.054 0.061-0.118 0.235-0.118 0.714v1.47h2.737c0.206 0 0.406 0.051 0.577 0.146 0.37 0.206 0.6 0.597 0.6 1.018l-0.001 3.715c0 0.642-0.523 1.164-1.167 1.164h-2.746v8.669c0 0.642-0.523 1.164-1.167 1.164zM10.012 22.546h3.364v-9.056c0-0.429 0.35-0.777 0.779-0.777h3.134l0.001-3.229h-3.135c-0.429 0-0.779-0.349-0.779-0.777v-2.099c0-0.55 0.056-1.175 0.472-1.645 0.502-0.568 1.294-0.634 1.846-0.634l1.734-0.001v-2.964l-2.693-0.004c-2.913 0-4.723 1.861-4.723 4.857v2.49c0 0.428-0.349 0.777-0.779 0.777h-2.635v3.229h2.635c0.429 0 0.779 0.349 0.779 0.777v9.056zM17.671 1.365v0z"></path>
</symbol>
<symbol id="icon-heart" viewBox="0 0 24 24">
<path fill="#887569" style="fill: var(--color2, #887569)" d="M6.805 2.065c2.002-0.011 3.905 0.869 5.195 2.4 1.282-1.542 3.19-2.424 5.195-2.4 3.758 0 6.805 3.047 6.805 6.805 0 6.441-11.24 12.729-11.696 12.972-0.184 0.123-0.424 0.123-0.608 0-0.456-0.243-11.696-6.44-11.696-12.972 0-3.758 3.047-6.805 6.805-6.805zM12 20.627c1.762-1.033 10.785-6.532 10.785-11.757 0-3.087-2.503-5.59-5.59-5.59-1.891-0.025-3.66 0.929-4.679 2.522-0.207 0.285-0.606 0.349-0.891 0.142-0.055-0.040-0.102-0.087-0.142-0.142-1.689-2.584-5.154-3.309-7.738-1.619-1.582 1.034-2.534 2.798-2.531 4.688-0 5.286 9.023 10.754 10.785 11.757z"></path>
</symbol>
<symbol id="icon-insta" viewBox="0 0 24 24">
<path fill="#7d6c65" style="fill: var(--color5, #7d6c65)" d="M17.503 0h-11.007c-3.582 0-6.497 2.914-6.497 6.497v11.007c0 3.582 2.914 6.496 6.497 6.496h11.007c3.582 0 6.496-2.914 6.496-6.496v-11.007c0-3.582-2.914-6.497-6.497-6.497v0zM22.593 17.504c0 2.806-2.283 5.089-5.090 5.089h-11.007c-2.806 0-5.090-2.283-5.090-5.089v-11.007c0-2.806 2.283-5.090 5.090-5.090h11.007c2.806 0 5.089 2.283 5.089 5.090v11.007z"></path>
<path fill="#7d6c65" style="fill: var(--color5, #7d6c65)" d="M12 5.438c-3.619 0-6.562 2.944-6.562 6.562s2.944 6.562 6.562 6.562c3.619 0 6.562-2.944 6.562-6.562s-2.944-6.562-6.562-6.562zM12 17.155c-2.843 0-5.155-2.313-5.155-5.155s2.313-5.155 5.155-5.155c2.843 0 5.155 2.313 5.155 5.155s-2.313 5.155-5.155 5.155z"></path>
<path fill="#7d6c65" style="fill: var(--color5, #7d6c65)" d="M18.719 3.107c-1.069 0-1.939 0.87-1.939 1.939s0.87 1.939 1.939 1.939c1.069 0 1.939-0.87 1.939-1.939s-0.87-1.939-1.939-1.939zM18.719 5.578c-0.293 0-0.532-0.239-0.532-0.532s0.239-0.532 0.532-0.532c0.294 0 0.532 0.239 0.532 0.532s-0.239 0.532-0.532 0.532z"></path>
</symbol>
<symbol id="icon-letter" viewBox="0 0 24 24">
<path fill="#7d6c65" style="fill: var(--color5, #7d6c65)" d="M21.75 3h-19.5c-1.241 0-2.25 1.009-2.25 2.25v13.5c0 1.241 1.009 2.25 2.25 2.25h19.5c1.241 0 2.25-1.009 2.25-2.25v-13.5c0-1.241-1.009-2.25-2.25-2.25zM21.75 4.5c0.102 0 0.199 0.021 0.287 0.058l-10.037 8.7-10.038-8.7c0.089-0.037 0.186-0.058 0.287-0.058h19.5zM21.75 19.5h-19.5c-0.414 0-0.75-0.336-0.75-0.75v-12.607l10.009 8.674c0.141 0.122 0.316 0.183 0.491 0.183s0.35-0.061 0.491-0.183l10.009-8.674v12.607c0 0.414-0.336 0.75-0.75 0.75z"></path>
</symbol>
<symbol id="icon-marker" viewBox="0 0 24 24">
<path fill="#7d6c65" style="fill: var(--color5, #7d6c65)" d="M11.983 0c-4.85 0-8.796 3.946-8.796 8.796 0 2.228 1.404 5.376 4.173 9.357 2.024 2.91 4.014 5.161 4.098 5.256l0.525 0.592 0.525-0.592c0.084-0.094 2.074-2.346 4.098-5.256 2.769-3.981 4.173-7.128 4.173-9.357 0-4.85-3.946-8.796-8.796-8.796zM15.462 17.34c-1.368 1.968-2.751 3.662-3.479 4.526-0.727-0.862-2.104-2.549-3.471-4.515-2.565-3.688-3.922-6.647-3.922-8.555 0-4.076 3.316-7.393 7.393-7.393s7.393 3.316 7.393 7.393c0 1.907-1.353 4.861-3.914 8.544z"></path>
<path fill="#7d6c65" style="fill: var(--color5, #7d6c65)" d="M11.982 3.251c-2.862 0-5.191 2.329-5.191 5.191s2.329 5.191 5.191 5.191c2.863 0 5.191-2.329 5.191-5.191s-2.329-5.191-5.191-5.191zM11.982 12.23c-2.089 0-3.788-1.699-3.788-3.788s1.699-3.788 3.788-3.788c2.089 0 3.788 1.699 3.788 3.788s-1.699 3.788-3.788 3.788z"></path>
</symbol>
<symbol id="icon-phone" viewBox="0 0 24 24">
<path fill="#887569" style="fill: var(--color2, #887569)" d="M17.249 24c-0.775 0-1.543-0.137-2.294-0.41-3.309-1.202-6.381-3.16-8.883-5.662s-4.46-5.574-5.662-8.883c-0.386-1.063-0.5-2.161-0.339-3.263 0.151-1.032 0.551-2.034 1.156-2.897 0.608-0.867 1.418-1.588 2.343-2.086 0.986-0.53 2.063-0.799 3.2-0.799 0.354 0 0.659 0.247 0.733 0.593l1.177 5.493c0.053 0.249-0.023 0.508-0.203 0.687l-2.011 2.011c1.898 3.773 4.977 6.852 8.749 8.749l2.011-2.011c0.18-0.18 0.439-0.256 0.687-0.203l5.493 1.177c0.346 0.074 0.593 0.38 0.593 0.733 0 1.137-0.269 2.214-0.799 3.2-0.497 0.925-1.219 1.735-2.086 2.343-0.863 0.605-1.865 1.005-2.897 1.156-0.323 0.047-0.647 0.071-0.969 0.071zM6.17 1.533c-1.5 0.166-2.831 0.952-3.715 2.213-0.994 1.419-1.226 3.163-0.636 4.787 2.311 6.362 7.285 11.336 13.647 13.647 1.624 0.59 3.369 0.358 4.787-0.636 1.262-0.884 2.048-2.215 2.213-3.715l-4.469-0.958-2.101 2.101c-0.224 0.224-0.563 0.283-0.849 0.149-4.462-2.096-8.074-5.708-10.17-10.17-0.134-0.286-0.075-0.626 0.148-0.849l2.101-2.101-0.958-4.469z"></path>
</symbol>
<symbol id="icon-point" viewBox="0 0 24 24">
<path fill="#a5a5a5" style="fill: var(--color6, #a5a5a5)" d="M24 12c0 6.627-5.373 12-12 12s-12-5.373-12-12c0-6.627 5.373-12 12-12s12 5.373 12 12z"></path>
</symbol>
<symbol id="icon-th-menu" fill="#887569" style="fill: var(--color2, #887569)" viewBox="0 0 24 24">
<path d="M19 17h-14c-1.103 0-2 0.897-2 2s0.897 2 2 2h14c1.103 0 2-0.897 2-2s-0.897-2-2-2z"></path>
<path d="M19 10h-14c-1.103 0-2 0.897-2 2s0.897 2 2 2h14c1.103 0 2-0.897 2-2s-0.897-2-2-2z"></path>
<path d="M19 3h-14c-1.103 0-2 0.897-2 2s0.897 2 2 2h14c1.103 0 2-0.897 2-2s-0.897-2-2-2z"></path>
</symbol>
</defs>
</svg>
